<mxfile modified="2019-11-13T08:42:12.611Z" host="www.draw.io" agent="Mozilla/5.0 (Windows NT 6.1; WOW64) AppleWebKit/537.36 (KHTML, like Gecko) Chrome/74.0.3729.169 Safari/537.36" etag="suoTyXcJmrq9lyxF9mrc" version="12.2.4" type="github" pages="1">
  <diagram id="7ypAmgLhwxIj_IhabiQf" name="ç¬¬ 1 é¡µ">
    <mxGraphModel dx="838" dy="481" grid="1" gridSize="10" guides="1" tooltips="1" connect="1" arrows="1" fold="1" page="1" pageScale="1" pageWidth="827" pageHeight="1169" math="0" shadow="0">
      <root>
        <mxCell id="0"/>
        <mxCell id="1" parent="0"/>
        <mxCell id="9yLlcKNQQFqDJGaCqLJ5-2" value="" style="rounded=1;whiteSpace=wrap;html=1;" parent="1" vertex="1">
          <mxGeometry x="60" y="5" width="740" height="40" as="geometry"/>
        </mxCell>
        <mxCell id="9yLlcKNQQFqDJGaCqLJ5-3" value="14m2bur 2019 06 15 11" style="text;html=1;" parent="1" vertex="1">
          <mxGeometry x="300" y="10" width="150" height="30" as="geometry"/>
        </mxCell>
        <mxCell id="9yLlcKNQQFqDJGaCqLJ5-11" value="&lt;span&gt;&lt;font style=&quot;font-size: 16px&quot;&gt;srcpar判断13与14（emc_c-&amp;gt;otf数据 ,emc_d-&amp;gt;14m,bur）及一些变量赋值&lt;/font&gt;&lt;/span&gt;" style="rounded=0;whiteSpace=wrap;html=1;" parent="1" vertex="1">
          <mxGeometry x="20" y="110" width="150" height="100" as="geometry"/>
        </mxCell>
        <mxCell id="9yLlcKNQQFqDJGaCqLJ5-12" value="&lt;font style=&quot;font-size: 15px&quot;&gt;basecheck.class判断是否是一兆带宽,及所观测的源的银纬是否0至负1之间，并生成初步的del文件&lt;/font&gt;" style="rounded=0;whiteSpace=wrap;html=1;" parent="1" vertex="1">
          <mxGeometry x="180" y="180" width="180" height="100" as="geometry"/>
        </mxCell>
        <mxCell id="9yLlcKNQQFqDJGaCqLJ5-15" value="&lt;font style=&quot;font-size: 15px&quot;&gt;basecheck_sub.class画出9个eps图，同时删除不好的Beam将其标记为1，写到del文件中&lt;/font&gt;" style="rounded=0;whiteSpace=wrap;html=1;" parent="1" vertex="1">
          <mxGeometry x="120" y="480" width="160" height="90" as="geometry"/>
        </mxCell>
        <mxCell id="9yLlcKNQQFqDJGaCqLJ5-30" value="" style="endArrow=classic;html=1;exitX=0.618;exitY=1.024;exitDx=0;exitDy=0;exitPerimeter=0;entryX=0.75;entryY=0;entryDx=0;entryDy=0;" parent="1" source="9yLlcKNQQFqDJGaCqLJ5-12" target="9yLlcKNQQFqDJGaCqLJ5-15" edge="1">
          <mxGeometry width="50" height="50" relative="1" as="geometry">
            <mxPoint x="343.5" y="297" as="sourcePoint"/>
            <mxPoint x="296.5" y="330" as="targetPoint"/>
            <Array as="points">
              <mxPoint x="220" y="281"/>
              <mxPoint x="220" y="300"/>
            </Array>
          </mxGeometry>
        </mxCell>
        <mxCell id="9yLlcKNQQFqDJGaCqLJ5-31" value="" style="endArrow=classic;html=1;exitX=0.75;exitY=1;exitDx=0;exitDy=0;" parent="1" source="9yLlcKNQQFqDJGaCqLJ5-12" edge="1">
          <mxGeometry width="50" height="50" relative="1" as="geometry">
            <mxPoint x="350" y="190" as="sourcePoint"/>
            <mxPoint x="320" y="330" as="targetPoint"/>
          </mxGeometry>
        </mxCell>
        <mxCell id="9yLlcKNQQFqDJGaCqLJ5-32" value="badtj.class算出删除率" style="rounded=0;whiteSpace=wrap;html=1;" parent="1" vertex="1">
          <mxGeometry x="280" y="330" width="80" height="40" as="geometry"/>
        </mxCell>
        <mxCell id="9yLlcKNQQFqDJGaCqLJ5-33" value="" style="endArrow=classic;html=1;exitX=0.75;exitY=1;exitDx=0;exitDy=0;" parent="1" source="9yLlcKNQQFqDJGaCqLJ5-3" target="9yLlcKNQQFqDJGaCqLJ5-34" edge="1">
          <mxGeometry width="50" height="50" relative="1" as="geometry">
            <mxPoint x="400" y="90" as="sourcePoint"/>
            <mxPoint x="380" y="110" as="targetPoint"/>
          </mxGeometry>
        </mxCell>
        <mxCell id="9yLlcKNQQFqDJGaCqLJ5-34" value="pregrid.class" style="rounded=0;whiteSpace=wrap;html=1;" parent="1" vertex="1">
          <mxGeometry x="353" y="80" width="120" height="60" as="geometry"/>
        </mxCell>
        <mxCell id="9yLlcKNQQFqDJGaCqLJ5-35" value="" style="endArrow=none;dashed=1;html=1;exitX=1;exitY=0.5;exitDx=0;exitDy=0;" parent="1" source="9yLlcKNQQFqDJGaCqLJ5-15" edge="1">
          <mxGeometry width="50" height="50" relative="1" as="geometry">
            <mxPoint x="340" y="410" as="sourcePoint"/>
            <mxPoint x="300" y="360" as="targetPoint"/>
          </mxGeometry>
        </mxCell>
        <mxCell id="9yLlcKNQQFqDJGaCqLJ5-36" value="" style="endArrow=classic;html=1;entryX=0.657;entryY=-0.049;entryDx=0;entryDy=0;entryPerimeter=0;" parent="1" target="9yLlcKNQQFqDJGaCqLJ5-37" edge="1">
          <mxGeometry width="50" height="50" relative="1" as="geometry">
            <mxPoint x="749" y="50" as="sourcePoint"/>
            <mxPoint x="570" y="90" as="targetPoint"/>
          </mxGeometry>
        </mxCell>
        <mxCell id="9yLlcKNQQFqDJGaCqLJ5-37" value="pbase.class" style="rounded=0;whiteSpace=wrap;html=1;" parent="1" vertex="1">
          <mxGeometry x="670" y="100" width="120" height="60" as="geometry"/>
        </mxCell>
        <mxCell id="2vq7MfWEiIfVnwJtWB_f-5" value="" style="endArrow=classic;html=1;entryX=0.398;entryY=-0.018;entryDx=0;entryDy=0;entryPerimeter=0;exitX=0.058;exitY=0.998;exitDx=0;exitDy=0;exitPerimeter=0;" parent="1" source="9yLlcKNQQFqDJGaCqLJ5-2" target="9yLlcKNQQFqDJGaCqLJ5-11" edge="1">
          <mxGeometry width="50" height="50" relative="1" as="geometry">
            <mxPoint x="80" y="90" as="sourcePoint"/>
            <mxPoint x="130" y="40" as="targetPoint"/>
          </mxGeometry>
        </mxCell>
        <mxCell id="9yLlcKNQQFqDJGaCqLJ5-28" value="&lt;font style=&quot;font-size: 15px&quot;&gt;这俩个class文件共同生成del并将坏的Beam删除文件和eps图&lt;/font&gt;" style="ellipse;whiteSpace=wrap;html=1;aspect=fixed;" parent="1" vertex="1">
          <mxGeometry y="285" width="130" height="130" as="geometry"/>
        </mxCell>
        <mxCell id="9yLlcKNQQFqDJGaCqLJ5-27" value="" style="endArrow=none;html=1;entryX=-0.017;entryY=0.398;entryDx=0;entryDy=0;entryPerimeter=0;" parent="1" target="9yLlcKNQQFqDJGaCqLJ5-12" edge="1" source="9yLlcKNQQFqDJGaCqLJ5-15">
          <mxGeometry width="50" height="50" relative="1" as="geometry">
            <mxPoint x="150" y="310" as="sourcePoint"/>
            <mxPoint x="170" y="240" as="targetPoint"/>
            <Array as="points">
              <mxPoint x="160" y="400"/>
              <mxPoint x="130" y="340"/>
            </Array>
          </mxGeometry>
        </mxCell>
        <mxCell id="isdHAhyAoWoldu2ZTCBN-2" value="" style="endArrow=classic;html=1;exitX=0.25;exitY=1;exitDx=0;exitDy=0;entryX=0.443;entryY=-0.012;entryDx=0;entryDy=0;entryPerimeter=0;" edge="1" parent="1" source="9yLlcKNQQFqDJGaCqLJ5-2" target="9yLlcKNQQFqDJGaCqLJ5-12">
          <mxGeometry width="50" height="50" relative="1" as="geometry">
            <mxPoint x="240" y="140" as="sourcePoint"/>
            <mxPoint x="290" y="90" as="targetPoint"/>
          </mxGeometry>
        </mxCell>
      </root>
    </mxGraphModel>
  </diagram>
</mxfile>
